<svg preserveAspectRatio="none" width="100%" height="100%" overflow="visible" style="display: block;" viewBox="0 0 48 48" fill="none" xmlns="http://www.w3.org/2000/svg">
<g id="1" clip-path="url(#clip0_0_74)">
<path id="Vector" fill-rule="evenodd" clip-rule="evenodd" d="M2.75745 0.163506C1.55367 0.485208 0.589481 1.4207 0.204766 2.64051C0.021038 3.22305 0 3.5714 0 6.03625V8.78298H1.2194H2.43891L2.47047 6.05106C2.49763 3.70489 2.52603 3.28534 2.67145 3.07997C3.07496 2.5103 3.10683 2.50458 6.05106 2.47047L8.78298 2.43891V1.2194V0L6.05106 0.00674062C3.98829 0.011847 3.18158 0.0502466 2.75745 0.163506ZM39.217 1.2194V2.43891L41.9489 2.47047C44.3578 2.49835 44.7122 2.52347 44.946 2.68228C45.4628 3.0335 45.4945 3.21886 45.5291 6.10213L45.5613 8.78298H46.7807H48V6.09804C48 3.03186 47.9239 2.54155 47.3071 1.63506C47.0883 1.31346 46.6865 0.911694 46.3649 0.692937C45.4584 0.0760855 44.9681 0 41.902 0H39.217V1.2194ZM0 41.902C0 44.9681 0.0760855 45.4584 0.692937 46.3649C0.911694 46.6865 1.31346 47.0883 1.63506 47.3071C2.54155 47.9239 3.03186 48 6.09804 48H8.78298V46.7745V45.5489H6.23183C3.4318 45.5489 3.04769 45.4844 2.68688 44.953C2.52214 44.7104 2.49866 44.3844 2.47047 41.9489L2.43891 39.217H1.2194H0V41.902ZM45.5295 41.9489C45.5013 44.3844 45.4778 44.7104 45.3131 44.953C44.9523 45.4844 44.5682 45.5489 41.7682 45.5489H39.217V46.7745V48H41.902C44.9681 48 45.4584 47.9239 46.3649 47.3071C46.6865 47.0883 47.0883 46.6865 47.3071 46.3649C47.9239 45.4584 48 44.9681 48 41.902V39.217H46.7806H45.5611L45.5295 41.9489Z" fill="var(--fill-0, black)"/>
<path id="Icon" d="M31.5 19.6666L16.5 11.0166M9.45 15.5999L24 24.0166L38.55 15.5999M24 40.7999V23.9999M39 30.6666V17.3333C38.9994 16.7487 38.8451 16.1746 38.5526 15.6685C38.26 15.1624 37.8396 14.7422 37.3333 14.4499L25.6667 7.78325C25.1599 7.49069 24.5851 7.33667 24 7.33667C23.4149 7.33667 22.8401 7.49069 22.3333 7.78325L10.6667 14.4499C10.1604 14.7422 9.73997 15.1624 9.44744 15.6685C9.1549 16.1746 9.0006 16.7487 9 17.3333V30.6666C9.0006 31.2511 9.1549 31.8252 9.44744 32.3313C9.73997 32.8374 10.1604 33.2576 10.6667 33.5499L22.3333 40.2166C22.8401 40.5091 23.4149 40.6632 24 40.6632C24.5851 40.6632 25.1599 40.5091 25.6667 40.2166L37.3333 33.5499C37.8396 33.2576 38.26 32.8374 38.5526 32.3313C38.8451 31.8252 38.9994 31.2511 39 30.6666Z" stroke="var(--stroke-0, black)" stroke-width="2.5" stroke-linecap="round" stroke-linejoin="round"/>
</g>
<defs>
<clipPath id="clip0_0_74">
<rect width="48" height="48" fill="white"/>
</clipPath>
</defs>
</svg>
