<svg preserveAspectRatio="none" width="100%" height="100%" overflow="visible" style="display: block;" viewBox="0 0 48 48" fill="none" xmlns="http://www.w3.org/2000/svg">
<g id="target" clip-path="url(#clip0_0_42)">
<path id="Vector" fill-rule="evenodd" clip-rule="evenodd" d="M2.75745 0.163506C1.55367 0.485208 0.589481 1.4207 0.204766 2.64051C0.021038 3.22305 0 3.5714 0 6.03625V8.78298H1.2194H2.43891L2.47047 6.05106C2.49763 3.70489 2.52603 3.28534 2.67145 3.07997C3.07496 2.5103 3.10683 2.50458 6.05106 2.47047L8.78298 2.43891V1.2194V0L6.05106 0.00674062C3.98829 0.011847 3.18158 0.0502466 2.75745 0.163506ZM39.217 1.2194V2.43891L41.9489 2.47047C44.3578 2.49835 44.7122 2.52347 44.946 2.68228C45.4628 3.0335 45.4945 3.21886 45.5291 6.10213L45.5613 8.78298H46.7807H48V6.09804C48 3.03186 47.9239 2.54155 47.3071 1.63506C47.0883 1.31346 46.6865 0.911694 46.3649 0.692937C45.4584 0.0760855 44.9681 0 41.902 0H39.217V1.2194ZM22.3149 6.80211C19.427 7.21879 17.6877 7.77406 15.6117 8.9424C14.3663 9.6433 13.9915 9.98359 13.9915 10.4137C13.9915 10.7735 14.146 11.1193 14.3911 11.3074C14.7485 11.5817 15.2377 11.4546 16.4426 10.7748C19.0378 9.31026 21.185 8.73774 24.0511 8.74591C25.9061 8.75122 27.1586 8.95057 28.8463 9.50921C31.238 10.3008 33.1149 11.4739 34.9964 13.3532C36.0367 14.3922 36.1819 14.5021 36.5152 14.5021C36.7864 14.5021 36.9627 14.4233 37.1823 14.2036C37.7385 13.6473 37.5824 13.1827 36.4367 11.9859C34.5234 9.98706 31.9106 8.36609 29.2445 7.52385C27.6714 7.02689 26.3322 6.82356 24.4085 6.78955C23.4255 6.77209 22.4834 6.7778 22.3149 6.80211ZM21.7978 10.978C17.1737 11.7933 13.2401 15.1456 11.6641 19.6143C10.9483 21.6436 10.6619 23.9519 10.7587 26.9106C10.8592 29.9801 11.1602 32.2662 11.798 34.8026C12.3278 36.9102 12.6208 37.3219 13.4453 37.1183C13.7522 37.0425 13.8782 36.9396 14.0206 36.6484C14.2026 36.2762 14.2022 36.2724 13.7434 34.4016C12.96 31.207 12.8273 30.0626 12.8218 26.4511C12.8166 23.067 12.9047 22.0946 13.3435 20.6946C14.11 18.2489 15.8127 16.0126 17.971 14.6172C22.5831 11.6353 28.4206 12.3506 32.2337 16.3648C33.604 17.8074 34.3845 19.2574 34.9229 21.3605C35.2619 22.6852 35.4009 22.8766 36.0237 22.8766C36.3903 22.8766 36.5335 22.8184 36.785 22.5669C37.0703 22.2816 37.0891 22.2195 37.0254 21.7755C36.7573 19.9083 35.8767 17.8066 34.6856 16.1909C32.793 13.6237 30.0807 11.8653 26.8596 11.1175C25.6972 10.8476 22.9645 10.7723 21.7978 10.978ZM11.3051 12.5209C10.9317 12.7234 9.87442 14.1598 9.08936 15.5314C7.55214 18.2171 6.74043 21.1995 6.74043 24.1617C6.74043 25.3308 6.86952 25.8046 7.26301 26.0802C7.77518 26.439 8.5058 26.1685 8.67554 25.5572C8.73396 25.3468 8.78206 24.639 8.78237 23.9846C8.784 20.6384 9.96725 17.3517 12.2612 14.3214C12.8828 13.5003 12.9123 13.1983 12.4187 12.7047C12.038 12.3239 11.7546 12.2772 11.3051 12.5209ZM22.9459 14.9107C20.633 15.198 18.3555 16.508 16.9093 18.383C15.8474 19.7596 15.6617 20.4864 16.2462 20.9781C16.8597 21.4944 17.3357 21.3024 18.0141 20.2647C18.7249 19.1774 19.9046 18.1019 20.9555 17.5831C22.1466 16.995 22.9821 16.8194 24.3064 16.879C27.4763 17.0216 29.9369 18.9705 30.8505 22.0623C31.0558 22.7572 31.0774 23.0678 31.0927 25.5319C31.1109 28.5141 31.1738 28.9827 31.8135 30.909C32.4354 32.7818 33.6214 34.8168 34.7196 35.8955C35.1701 36.338 35.2912 36.4039 35.6549 36.4039C35.9853 36.4039 36.1239 36.3444 36.3172 36.1197C36.7031 35.6709 36.6447 35.2562 36.0964 34.5537C34.8779 32.9923 34.2082 31.8166 33.7207 30.383C33.159 28.7312 33.0554 27.8906 33.1232 25.5356C33.1914 23.1651 33.1064 22.2938 32.6875 21.0667C32.2049 19.6534 31.6333 18.7638 30.435 17.5612C29.4496 16.5723 29.2653 16.4362 28.1872 15.902C27.5413 15.5818 26.6654 15.232 26.2409 15.1245C25.3001 14.8862 23.8833 14.7943 22.9459 14.9107ZM38.4112 16.483C38.1457 16.6302 37.8988 17.0075 37.8929 17.2749C37.891 17.3675 38.0514 17.863 38.2496 18.376C39.2481 20.9616 39.5081 23.5938 39.0551 26.5319C38.8885 27.6138 38.93 27.903 39.2933 28.1889C39.6952 28.505 40.2643 28.4603 40.5776 28.0881C41.2379 27.3033 41.4603 23.4826 40.9998 20.834C40.8103 19.744 40.235 17.862 39.8703 17.1391C39.4899 16.3846 38.9922 16.1609 38.4112 16.483ZM22.6634 19.1433C20.9478 19.6165 19.6034 21.0273 19.1543 22.8255C18.9088 23.8083 18.7919 26.1041 18.9021 27.7757C19.2122 32.4765 20.5879 36.8383 22.9316 40.551C23.4238 41.3307 24.0895 41.4922 24.6206 40.9611C25.0559 40.5258 25.0204 40.1404 24.4625 39.244C22.1656 35.553 20.8322 30.8428 20.8349 26.4295C20.8369 23.1862 21.2678 21.9513 22.63 21.2849C24.1578 20.5374 25.9186 21.0544 26.7099 22.4828L27.0128 23.0298L27.022 25.634C27.0271 27.1021 27.0842 28.5725 27.1527 29.0043C27.6909 32.3938 28.8813 35.1251 31.0136 37.8627C31.7509 38.8093 31.8899 38.9106 32.4521 38.9106C32.9209 38.9106 33.2555 38.6161 33.3556 38.1155C33.4287 37.7499 33.3174 37.5361 32.6259 36.7149C31.484 35.3585 30.4454 33.4538 29.8195 31.5682C29.0834 29.3504 28.8342 27.4191 29.008 25.2791C29.1169 23.9382 29.085 23.3825 28.8522 22.5628C28.3879 20.9276 27.0317 19.5571 25.477 19.1522C24.7629 18.9662 23.3218 18.9616 22.6634 19.1433ZM23.6401 23.1213C23.2145 23.3068 23.1016 23.6167 22.9766 24.9422C22.7938 26.8804 23.1783 30.864 23.6331 31.7434C23.9515 32.3591 24.64 32.465 25.1313 31.9738C25.4898 31.6152 25.4936 31.5144 25.2061 29.959C25.0189 28.9463 24.98 28.3407 24.9677 26.2468C24.9596 24.8706 24.9179 23.637 24.8751 23.5056C24.8313 23.371 24.6468 23.2035 24.453 23.1226C24.0412 22.9505 24.0321 22.9504 23.6401 23.1213ZM15.2251 23.9763C14.8372 24.3641 14.7848 24.9731 14.907 27.6766C15.0122 30.0076 15.1728 31.3078 15.5846 33.1636C16.1786 35.8406 17.6235 39.6039 18.2987 40.2331C18.6355 40.5468 19.149 40.5092 19.5142 40.144C19.9331 39.7252 19.9008 39.402 19.3065 38.0612C17.5466 34.0905 16.669 29.7426 16.771 25.4991L16.8 24.292L16.4664 23.9927C16.0305 23.6016 15.6053 23.596 15.2251 23.9763ZM35.3963 25.8462C35.0936 26.2059 35.0655 26.5715 35.2424 27.8437C35.4786 29.5418 36.3968 31.6858 37.2805 32.6025C37.6711 33.0079 37.8117 33.0894 38.1202 33.0894C38.3628 33.0894 38.5879 33.0058 38.7722 32.8473C39.17 32.505 39.1504 32.0336 38.7093 31.3359C37.7092 29.7541 37.3508 28.7986 37.1321 27.1303C36.957 25.7952 36.786 25.5319 36.0934 25.5319C35.7356 25.5319 35.615 25.5863 35.3963 25.8462ZM25.3198 34.9198C25.1066 35.1331 25.0213 35.3178 25.0213 35.5668C25.0213 36.2205 26.5453 38.875 27.6302 40.1106C28.0308 40.5668 28.1546 40.6468 28.4607 40.6468C28.8976 40.6468 29.5149 40.0962 29.5149 39.7064C29.5149 39.5687 29.2054 39.0135 28.8119 38.4451C28.4253 37.8867 27.781 36.8553 27.3799 36.1532C26.979 35.4511 26.5741 34.8192 26.4804 34.7489C26.1703 34.5167 25.6456 34.594 25.3198 34.9198ZM0 41.902C0 44.9681 0.0760855 45.4584 0.692937 46.3649C0.911694 46.6865 1.31346 47.0883 1.63506 47.3071C2.54155 47.9239 3.03186 48 6.09804 48H8.78298V46.7745V45.5489H6.23183C3.4318 45.5489 3.04769 45.4844 2.68688 44.953C2.52214 44.7104 2.49866 44.3844 2.47047 41.9489L2.43891 39.217H1.2194H0V41.902ZM45.5295 41.9489C45.5013 44.3844 45.4779 44.7104 45.3131 44.953C44.9523 45.4844 44.5682 45.5489 41.7682 45.5489H39.217V46.7745V48H41.902C44.9681 48 45.4584 47.9239 46.3649 47.3071C46.6865 47.0883 47.0883 46.6865 47.3071 46.3649C47.9239 45.4584 48 44.9681 48 41.902V39.217H46.7806H45.5611L45.5295 41.9489Z" fill="var(--fill-0, #F76403)"/>
</g>
<defs>
<clipPath id="clip0_0_42">
<rect width="48" height="48" fill="white"/>
</clipPath>
</defs>
</svg>
