<svg width="191" height="24" viewBox="0 0 191 24" fill="none" xmlns="http://www.w3.org/2000/svg">
<rect width="11.8861" height="11.7845" rx="5.89224" fill="#F76403"/>
<rect y="11.7847" width="11.8861" height="11.8861" rx="5.94303" fill="#F76403"/>
<rect x="11.8861" y="11.7847" width="11.7845" height="11.8861" rx="5.89224" fill="#F76403"/>
<rect x="11.8861" width="11.7845" height="11.7845" rx="5.89224" fill="#F76403"/>
<rect x="23.6705" width="11.8861" height="11.7845" rx="5.89224" fill="#F76403"/>
<path d="M44.2225 6.1816V1.94175H61.0864V6.1816H55.2504V21.3239H50.0586V6.1816H44.2225Z" fill="#F76403"/>
<path d="M63.0689 21.3239V1.94175H77.0527V6.1816H68.3365V9.51292H76.3326V13.7528H68.3365V17.0841H77.0148V21.3239H63.0689Z" fill="#F76403"/>
<path d="M79.6651 21.3239V1.94175H84.9327V9.77791H85.198L91.0341 1.94175H97.1733L90.6172 10.5729L97.3249 21.3239H91.0341L86.676 14.0556L84.9327 16.327V21.3239H79.6651Z" fill="#F76403"/>
<path d="M108.935 7.99869C108.885 7.36775 108.648 6.87563 108.225 6.52231C107.808 6.16898 107.173 5.99232 106.321 5.99232C105.777 5.99232 105.332 6.05857 104.985 6.19107C104.644 6.31725 104.391 6.49076 104.227 6.71159C104.063 6.93241 103.977 7.18478 103.971 7.4687C103.958 7.70215 103.999 7.91351 104.094 8.10279C104.195 8.28576 104.353 8.45295 104.568 8.60438C104.783 8.74949 105.057 8.88199 105.392 9.00186C105.727 9.12174 106.125 9.229 106.586 9.32364L108.177 9.66434C109.251 9.89148 110.17 10.1912 110.934 10.5634C111.699 10.9357 112.324 11.3742 112.81 11.8789C113.297 12.3773 113.653 12.9389 113.881 13.5635C114.115 14.1881 114.235 14.8695 114.241 15.6077C114.235 16.8822 113.916 17.9611 113.284 18.8444C112.652 19.7277 111.749 20.3996 110.574 20.8602C109.406 21.3208 108.001 21.5511 106.358 21.5511C104.672 21.5511 103.2 21.3019 101.943 20.8034C100.693 20.305 99.7202 19.5384 99.0255 18.5037C98.337 17.4626 97.9896 16.1314 97.9833 14.5099H102.986C103.017 15.103 103.166 15.6014 103.431 16.0052C103.696 16.409 104.069 16.715 104.549 16.9232C105.035 17.1314 105.613 17.2355 106.283 17.2355C106.845 17.2355 107.315 17.1661 107.694 17.0273C108.073 16.8885 108.361 16.6961 108.556 16.45C108.752 16.2039 108.853 15.9232 108.86 15.6077C108.853 15.3112 108.755 15.0525 108.566 14.8317C108.383 14.6045 108.08 14.4026 107.656 14.226C107.233 14.043 106.662 13.8727 105.942 13.7149L104.009 13.2985C102.291 12.9263 100.936 12.3048 99.9444 11.4341C98.9591 10.5571 98.4696 9.3615 98.476 7.84726C98.4696 6.61695 98.7981 5.54121 99.4613 4.62005C100.131 3.69258 101.056 2.97017 102.237 2.4528C103.425 1.93544 104.786 1.67676 106.321 1.67676C107.887 1.67676 109.242 1.93859 110.385 2.46227C111.528 2.98594 112.409 3.72413 113.028 4.67683C113.653 5.62323 113.969 6.73051 113.976 7.99869H108.935Z" fill="#F76403"/>
<path d="M115.714 6.1816V1.94175H132.578V6.1816H126.742V21.3239H121.55V6.1816H115.714Z" fill="#F76403"/>
<path d="M146.043 1.94175H151.311V14.3585C151.311 15.8348 150.957 17.1125 150.25 18.1914C149.548 19.264 148.569 20.0936 147.313 20.6804C146.056 21.2609 144.597 21.5511 142.936 21.5511C141.262 21.5511 139.796 21.2609 138.54 20.6804C137.283 20.0936 136.304 19.264 135.603 18.1914C134.908 17.1125 134.56 15.8348 134.56 14.3585V1.94175H139.828V13.9042C139.828 14.5036 139.961 15.0399 140.226 15.5131C140.491 15.98 140.858 16.3459 141.325 16.6109C141.799 16.8759 142.336 17.0084 142.936 17.0084C143.542 17.0084 144.079 16.8759 144.546 16.6109C145.014 16.3459 145.38 15.98 145.645 15.5131C145.91 15.0399 146.043 14.5036 146.043 13.9042V1.94175Z" fill="#F76403"/>
<path d="M153.814 21.3239V1.94175H162.189C163.629 1.94175 164.889 2.20359 165.969 2.72726C167.049 3.25093 167.89 4.00489 168.49 4.98915C169.09 5.9734 169.39 7.15324 169.39 8.52867C169.39 9.91671 169.08 11.0871 168.461 12.0398C167.848 12.9925 166.986 13.7118 165.875 14.1976C164.769 14.6834 163.478 14.9263 162 14.9263H156.997V10.8379H160.939C161.558 10.8379 162.085 10.7622 162.521 10.6107C162.963 10.453 163.301 10.2038 163.535 9.86309C163.775 9.52238 163.895 9.07758 163.895 8.52867C163.895 7.97345 163.775 7.52233 163.535 7.17532C163.301 6.822 162.963 6.56332 162.521 6.39927C162.085 6.22892 161.558 6.14375 160.939 6.14375H159.082V21.3239H153.814ZM165.183 12.4278L170.034 21.3239H164.311L159.574 12.4278H165.183Z" fill="#F76403"/>
<path d="M176.675 21.3239H170.991L177.395 1.94175H184.596L191 21.3239H185.316L181.071 7.27942H180.92L176.675 21.3239ZM175.614 13.6771H186.301V17.6141H175.614V13.6771Z" fill="#F76403"/>
<path d="M44.2225 6.1816V1.94175H61.0864V6.1816H55.2504V21.3239H50.0586V6.1816H44.2225Z" stroke="#F76403"/>
<path d="M63.0689 21.3239V1.94175H77.0527V6.1816H68.3365V9.51292H76.3326V13.7528H68.3365V17.0841H77.0148V21.3239H63.0689Z" stroke="#F76403"/>
<path d="M79.6651 21.3239V1.94175H84.9327V9.77791H85.198L91.0341 1.94175H97.1733L90.6172 10.5729L97.3249 21.3239H91.0341L86.676 14.0556L84.9327 16.327V21.3239H79.6651Z" stroke="#F76403"/>
<path d="M108.935 7.99869C108.885 7.36775 108.648 6.87563 108.225 6.52231C107.808 6.16898 107.173 5.99232 106.321 5.99232C105.777 5.99232 105.332 6.05857 104.985 6.19107C104.644 6.31725 104.391 6.49076 104.227 6.71159C104.063 6.93241 103.977 7.18478 103.971 7.4687C103.958 7.70215 103.999 7.91351 104.094 8.10279C104.195 8.28576 104.353 8.45295 104.568 8.60438C104.783 8.74949 105.057 8.88199 105.392 9.00186C105.727 9.12174 106.125 9.229 106.586 9.32364L108.177 9.66434C109.251 9.89148 110.17 10.1912 110.934 10.5634C111.699 10.9357 112.324 11.3742 112.81 11.8789C113.297 12.3773 113.653 12.9389 113.881 13.5635C114.115 14.1881 114.235 14.8695 114.241 15.6077C114.235 16.8822 113.916 17.9611 113.284 18.8444C112.652 19.7277 111.749 20.3996 110.574 20.8602C109.406 21.3208 108.001 21.5511 106.358 21.5511C104.672 21.5511 103.2 21.3019 101.943 20.8034C100.693 20.305 99.7202 19.5384 99.0255 18.5037C98.337 17.4626 97.9896 16.1314 97.9833 14.5099H102.986C103.017 15.103 103.166 15.6014 103.431 16.0052C103.696 16.409 104.069 16.715 104.549 16.9232C105.035 17.1314 105.613 17.2355 106.283 17.2355C106.845 17.2355 107.315 17.1661 107.694 17.0273C108.073 16.8885 108.361 16.6961 108.556 16.45C108.752 16.2039 108.853 15.9232 108.86 15.6077C108.853 15.3112 108.755 15.0525 108.566 14.8317C108.383 14.6045 108.08 14.4026 107.656 14.226C107.233 14.043 106.662 13.8727 105.942 13.7149L104.009 13.2985C102.291 12.9263 100.936 12.3048 99.9444 11.4341C98.9591 10.5571 98.4696 9.3615 98.476 7.84726C98.4696 6.61695 98.7981 5.54121 99.4613 4.62005C100.131 3.69258 101.056 2.97017 102.237 2.4528C103.425 1.93544 104.786 1.67676 106.321 1.67676C107.887 1.67676 109.242 1.93859 110.385 2.46227C111.528 2.98594 112.409 3.72413 113.028 4.67683C113.653 5.62323 113.969 6.73051 113.976 7.99869H108.935Z" stroke="#F76403"/>
<path d="M115.714 6.1816V1.94175H132.578V6.1816H126.742V21.3239H121.55V6.1816H115.714Z" stroke="#F76403"/>
<path d="M146.043 1.94175H151.311V14.3585C151.311 15.8348 150.957 17.1125 150.25 18.1914C149.548 19.264 148.569 20.0936 147.313 20.6804C146.056 21.2609 144.597 21.5511 142.936 21.5511C141.262 21.5511 139.796 21.2609 138.54 20.6804C137.283 20.0936 136.304 19.264 135.603 18.1914C134.908 17.1125 134.56 15.8348 134.56 14.3585V1.94175H139.828V13.9042C139.828 14.5036 139.961 15.0399 140.226 15.5131C140.491 15.98 140.858 16.3459 141.325 16.6109C141.799 16.8759 142.336 17.0084 142.936 17.0084C143.542 17.0084 144.079 16.8759 144.546 16.6109C145.014 16.3459 145.38 15.98 145.645 15.5131C145.91 15.0399 146.043 14.5036 146.043 13.9042V1.94175Z" stroke="#F76403"/>
<path d="M153.814 21.3239V1.94175H162.189C163.629 1.94175 164.889 2.20359 165.969 2.72726C167.049 3.25093 167.89 4.00489 168.49 4.98915C169.09 5.9734 169.39 7.15324 169.39 8.52867C169.39 9.91671 169.08 11.0871 168.461 12.0398C167.848 12.9925 166.986 13.7118 165.875 14.1976C164.769 14.6834 163.478 14.9263 162 14.9263H156.997V10.8379H160.939C161.558 10.8379 162.085 10.7622 162.521 10.6107C162.963 10.453 163.301 10.2038 163.535 9.86309C163.775 9.52238 163.895 9.07758 163.895 8.52867C163.895 7.97345 163.775 7.52233 163.535 7.17532C163.301 6.822 162.963 6.56332 162.521 6.39927C162.085 6.22892 161.558 6.14375 160.939 6.14375H159.082V21.3239H153.814ZM165.183 12.4278L170.034 21.3239H164.311L159.574 12.4278H165.183Z" stroke="#F76403"/>
<path d="M176.675 21.3239H170.991L177.395 1.94175H184.596L191 21.3239H185.316L181.071 7.27942H180.92L176.675 21.3239ZM175.614 13.6771H186.301V17.6141H175.614V13.6771Z" stroke="#F76403"/>
</svg>
